<svg xmlns="http://www.w3.org/2000/svg" id="Layer_1" data-name="Layer 1" version="1.1" viewBox="0 0 4758.52 1512.53">
  <defs>
    <style>
      .cls-1,.cls-2{fill:#020202;stroke-width:0}.cls-2{fill:#fcfdff}.cls-3{isolation:isolate}
    </style>
  </defs>
  <rect width="1024" height="1024" x="284.47" y="244.27" class="cls-1" rx="228" ry="228"/>
  <rect width="1024" height="1024" x="1353.85" y="244.27" class="cls-1" rx="228" ry="228"/>
  <g class="cls-3">
    <g class="cls-3">
      <path d="M714.86 892.29c1.65 19.78 8.37 35.44 20.19 46.98 11.81 11.54 27.33 17.31 46.57 17.31s36.13-5.77 49.04-17.31c12.9-11.54 22.94-25.96 30.09-43.27 7.14-17.31 12.08-35.86 14.84-55.64 2.74-19.78 4.12-37.92 4.12-54.4h-1.65c-3.3 4.95-7.97 10.45-14.01 16.49-6.05 6.05-13.47 11.68-22.25 16.9-8.8 5.23-19.24 9.62-31.32 13.19-12.09 3.58-26.11 5.36-42.04 5.36-26.38 0-49.74-4.53-70.06-13.6-20.34-9.07-37.65-21.7-51.93-37.92-14.3-16.2-25.14-35.57-32.56-58.11-7.42-22.53-11.13-47.52-11.13-75.01 0-25.82 4.53-50 13.6-72.53s21.84-42.04 38.33-58.52c16.49-16.49 36.13-29.53 58.93-39.15 22.8-9.61 48.22-14.42 76.24-14.42 41.75 0 75.83 8.24 102.21 24.73 26.38 16.49 46.7 37.92 61 64.29 14.28 26.38 24.03 56.05 29.26 89.02 5.22 32.97 7.83 65.67 7.83 98.09 0 44.51-4.4 85.31-13.19 122.4-8.8 37.09-21.84 69.11-39.15 96.03-17.31 26.93-39.02 47.95-65.12 63.06-26.11 15.11-56.75 22.67-91.9 22.67-47.27 0-85.86-11.95-115.81-35.86-29.96-23.9-48.77-59.48-56.46-106.74l106.33-14.01Zm75.01-146.72c26.38 0 46.57-8.1 60.58-24.32 14.01-16.2 21.02-38.87 21.02-68s-7.01-51.79-21.02-68c-14.01-16.2-34.21-24.32-60.58-24.32s-46.57 8.11-60.58 24.32c-14.01 16.21-21.02 38.88-21.02 68s7.01 51.8 21.02 68c14.01 16.21 34.21 24.32 60.58 24.32Z" class="cls-2"/>
    </g>
  </g>
  <g class="cls-3">
    <g class="cls-3">
      <path d="M1711.17 910.42h-248.1v-77.48l245.63-354.43h103.03v344.54h70.06v87.37h-70.06V1039h-100.56V910.42Zm0-313.21h-1.65l-140.95 225.85h142.6V597.21Zm418.73 107.15c0-21.97-3.03-36.68-9.07-44.1-6.05-7.42-18.69-11.13-37.92-11.13h-89.02v-67.59h16.49c24.73 0 45.19-2.47 61.41-7.42 16.2-4.95 29.39-11.95 39.56-21.02 10.16-9.07 17.99-19.91 23.49-32.56 5.49-12.63 9.89-26.65 13.19-42.04h82.43V1039H2129.9V704.35Z" class="cls-2"/>
    </g>
  </g>
  <g class="cls-3">
    <g class="cls-3">
      <path d="M2758.79 452.14h128.58l196.17 586.87h-115.4l-33.79-113.75H2711.8l-33.79 113.75h-115.4l196.17-586.87Zm65.12 107.15h-1.65L2741.48 828h163.2l-80.78-268.71Zm323.92 62.64h100.56v35.44h1.65c15.38-14.28 32.83-25.41 52.34-33.38 19.5-7.96 41.62-11.95 66.35-11.95 26.38 0 50.55 5.77 72.53 17.31 21.97 11.54 40.93 27.2 56.88 46.98 15.93 19.78 28.29 42.86 37.09 69.24 8.79 26.38 13.19 54.68 13.19 84.9s-4.4 58.52-13.19 84.9c-8.79 26.38-21.16 49.46-37.09 69.24-15.95 19.78-35.03 35.44-57.29 46.98-22.25 11.54-46.85 17.31-73.77 17.31-30.23 0-54.27-4.68-72.12-14.01-17.86-9.34-33.38-21.43-46.57-36.27v173.92h-100.56V621.93Zm196.18 334.65c18.67 0 34.33-3.71 46.98-11.13 12.63-7.42 22.8-17.17 30.5-29.26 7.69-12.08 13.19-25.68 16.48-40.8 3.3-15.11 4.95-30.09 4.95-44.92s-1.65-29.8-4.95-44.92c-3.3-15.11-8.8-28.71-16.48-40.8-7.7-12.08-17.86-21.84-30.5-29.26-12.65-7.42-28.31-11.13-46.98-11.13s-35.03 3.71-47.4 11.13c-12.36 7.42-22.4 17.18-30.08 29.26-7.7 12.09-13.19 25.69-16.49 40.8-3.3 15.12-4.95 30.09-4.95 44.92s1.65 29.82 4.95 44.92c3.3 15.12 8.78 28.72 16.49 40.8 7.69 12.09 17.72 21.84 30.08 29.26 12.36 7.42 28.15 11.13 47.4 11.13Zm292.6-334.65h100.56v35.44h1.65c15.38-14.28 32.83-25.41 52.34-33.38 19.5-7.96 41.62-11.95 66.35-11.95 26.38 0 50.55 5.77 72.54 17.31 21.97 11.54 40.93 27.2 56.87 46.98 15.93 19.78 28.29 42.86 37.09 69.24 8.78 26.38 13.19 54.68 13.19 84.9s-4.4 58.52-13.19 84.9c-8.8 26.38-21.16 49.46-37.09 69.24-15.94 19.78-35.03 35.44-57.29 46.98-22.26 11.54-46.86 17.31-73.77 17.31-30.23 0-54.27-4.68-72.12-14.01-17.86-9.34-33.38-21.43-46.57-36.27v173.92h-100.56V621.93Zm196.17 334.65c18.67 0 34.34-3.71 46.98-11.13 12.63-7.42 22.8-17.17 30.5-29.26 7.69-12.08 13.19-25.68 16.48-40.8 3.3-15.11 4.95-30.09 4.95-44.92s-1.65-29.8-4.95-44.92c-3.3-15.11-8.79-28.71-16.48-40.8-7.7-12.08-17.86-21.84-30.5-29.26-12.65-7.42-28.31-11.13-46.98-11.13s-35.03 3.71-47.39 11.13c-12.36 7.42-22.4 17.18-30.09 29.26-7.7 12.09-13.19 25.69-16.48 40.8-3.3 15.12-4.95 30.09-4.95 44.92s1.65 29.82 4.95 44.92c3.3 15.12 8.78 28.72 16.48 40.8 7.69 12.09 17.72 21.84 30.09 29.26 12.36 7.42 28.15 11.13 47.39 11.13Zm561.32-202.76c-3.3-6.59-7.7-13.46-13.19-20.61-5.5-7.13-12.65-13.6-21.43-19.37-8.8-5.77-18.96-10.43-30.5-14.01-11.54-3.57-24.73-5.36-39.56-5.36-23.63-.54-42.32 2.88-56.05 10.3-13.74 7.42-20.61 17.45-20.61 30.08s6.45 21.02 19.37 26.79c12.91 5.77 29.12 10.44 48.63 14.01 19.5 3.58 40.66 7.29 63.47 11.13 22.8 3.85 43.96 10.03 63.47 18.55 19.5 8.53 35.71 20.34 48.63 35.44 12.9 15.12 19.37 35.86 19.37 62.23s-5.23 47.12-15.66 65.53c-10.45 18.42-24.19 33.52-41.21 45.33-17.04 11.82-36.82 20.61-59.35 26.38-22.54 5.77-45.62 8.66-69.24 8.66-49.46 0-90.81-7.42-124.05-22.26-33.25-14.84-59.22-32.69-77.89-53.58l75.83-58.52c11.54 17.04 27.74 29.96 48.63 38.74 20.88 8.8 44.78 13.19 71.71 13.19 12.08 0 23.08-1.51 32.97-4.53 9.89-3.01 18.4-6.86 25.55-11.54 7.13-4.66 12.63-9.89 16.49-15.66 3.84-5.77 5.77-11.4 5.77-16.9 0-11.54-6.32-20.19-18.96-25.96-12.65-5.77-28.58-10.57-47.81-14.42-19.24-3.84-39.98-7.83-62.23-11.95-22.25-4.12-43-10.57-62.23-19.37-19.24-8.78-35.17-20.88-47.81-36.27-12.65-15.38-18.96-36.27-18.96-62.64 0-23.62 4.8-43.96 14.42-61 9.61-17.03 22.67-31.04 39.15-42.04 16.49-10.99 35.98-19.09 58.52-24.32 22.53-5.22 46.7-7.83 72.54-7.83s46.7 2.76 65.94 8.24c19.23 5.5 35.86 12.23 49.87 20.19 14.01 7.97 25.68 16.36 35.03 25.14 9.34 8.8 16.48 16.21 21.43 22.25l-70.06 65.94Z" class="cls-2"/>
    </g>
  </g>
</svg>
